<?xml version="1.0" encoding="UTF-8"?>
<svg version="1.1" xmlns="http://www.w3.org/2000/svg" width="640" height="640">
<path d="M0 0 C2.88228582 2.46262921 5.65367098 5.03889501 8.421875 7.62890625 C12.77440509 11.63191498 17.39288046 15.29676628 22 19 C22.78761719 19.65613281 23.57523437 20.31226563 24.38671875 20.98828125 C29.86598043 25.50754006 35.59861696 29.45608413 41.52441406 33.35253906 C57.78906832 44.08240522 69.73780307 57.21197602 78 75 C78 75.66 78 76.32 78 77 C88.80677568 72.19452803 95.20854502 66.54314417 101.69970703 56.71582031 C105.01976466 51.75960357 108.58120365 47.70939818 114 45 C123.15644124 43.90696103 131.37955172 46.51327991 139.1875 51.25 C157.43507556 66.25107438 160.05658012 103.40479838 162.6171875 124.6640625 C164.58216135 146.58879909 164.99722535 170.73131422 159 192 C158.75330566 192.88623047 158.50661133 193.77246094 158.25244141 194.68554688 C154.84397899 206.5450711 150.40132474 217.45061683 144 228 C143.45859375 228.8971875 142.9171875 229.794375 142.359375 230.71875 C128.78229721 251.54572369 106.85024624 264.09927641 83.03369141 269.578125 C74.91985281 271.26128383 66.88287045 271.15012537 58.625 271.125 C56.73007812 271.13080078 56.73007812 271.13080078 54.796875 271.13671875 C47.80153364 271.12944709 40.94153025 270.88921266 34 270 C33.56300781 271.45019531 33.56300781 271.45019531 33.1171875 272.9296875 C28.06897803 289.15831291 20.72583827 300.58203274 5.71484375 309.33203125 C-4.43650663 314.55440225 -15.75671509 316.85420601 -26.9375 313.875 C-40.22138593 309.44019419 -49.64365318 299.56652816 -59.1875 289.75 C-60.89252684 287.92892904 -60.89252684 287.92892904 -63 287 C-60.23383565 295.61801699 -56.92540513 303.99724884 -53.58398438 312.40625 C-48.43267509 325.58867377 -47.49282205 337.56023834 -46.97094727 351.58544922 C-46.8788955 353.97688238 -46.77039019 356.36715812 -46.66015625 358.7578125 C-46.62717186 359.84245285 -46.62717186 359.84245285 -46.59352112 360.94900513 C-46.34845466 366.02648631 -45.09979733 369.47525983 -43 374 C-41.89332525 383.42843488 -42.69995071 392.82992278 -47.875 400.9375 C-55.27438123 408.11925238 -65.27228428 408.31112321 -75.109375 408.30078125 C-76.03864807 408.30506638 -76.96792114 408.3093515 -77.925354 408.31376648 C-79.87828768 408.31946921 -81.83124257 408.32004028 -83.78417969 408.31567383 C-86.72889553 408.31252258 -89.67259594 408.3359946 -92.6171875 408.36132812 C-103.85179216 408.39820138 -114.42627004 408.00430338 -125.15429688 404.24511719 C-127.05647087 403.80156866 -127.05647087 403.80156866 -128.70410156 404.98461914 C-129.2606543 405.49629639 -129.81720703 406.00797363 -130.390625 406.53515625 C-131.01428955 407.09501221 -131.6379541 407.65486816 -132.28051758 408.23168945 C-132.93044678 408.83585693 -133.58037598 409.44002441 -134.25 410.0625 C-135.59086719 411.26738645 -136.93330021 412.47053278 -138.27734375 413.671875 C-138.91913574 414.25001953 -139.56092773 414.82816406 -140.22216797 415.42382812 C-148.76765799 423 -148.76765799 423 -152 423 C-152.27585937 423.73347656 -152.55171875 424.46695312 -152.8359375 425.22265625 C-156.48723358 433.93430563 -162.03629801 440.23525257 -170.62890625 444.21875 C-181.04178964 448.46271994 -190.58494877 449.88838454 -201.2890625 445.42578125 C-220.97555567 435.07193398 -235.65824827 409.07552425 -242.80859375 388.6953125 C-244.49519844 382.71658966 -244.69038579 377.35543386 -242.9375 371.375 C-241.17896771 368.31175021 -240.0148591 366.96486635 -237.37890625 364.7890625 C-236.43059937 363.99943115 -236.43059937 363.99943115 -235.46313477 363.19384766 C-234.98030029 362.79987793 -234.49746582 362.4059082 -234 362 C-234.66008057 361.97494385 -235.32016113 361.9498877 -236.00024414 361.92407227 C-239.02115369 361.80728248 -242.04181422 361.68493554 -245.0625 361.5625 C-246.62000977 361.50352539 -246.62000977 361.50352539 -248.20898438 361.44335938 C-253.54030641 361.22333656 -258.73689893 360.8883816 -264 360 C-263.83951172 361.12535156 -263.83951172 361.12535156 -263.67578125 362.2734375 C-262.09719914 375.75079447 -266.65189835 383.66974577 -273.8203125 394.65625 C-276.78924751 399.21074528 -277.16277701 402.0675904 -277.375 407.375 C-277.9443498 418.2084954 -279.13828334 428.44679475 -287.375 436.25 C-297.45643163 442.97095442 -313.43932121 441.09585258 -324.85864258 438.97167969 C-328.93790297 438.09861764 -332.96591376 437.06010257 -337 436 C-338.14581543 435.7102832 -339.29163086 435.42056641 -340.47216797 435.12207031 C-343.67706414 434.30851018 -346.87685434 433.48024694 -350.07321167 432.6340332 C-351.94315341 432.14001815 -353.81542007 431.65482964 -355.68774414 431.16992188 C-366.31397863 428.2626552 -376.73024518 424.57439093 -383 415 C-385.48219549 410.48691729 -385.74196554 405.8787471 -384.45117188 400.87060547 C-383.70684352 398.6201596 -382.9025534 396.40393379 -382.0625 394.1875 C-381.78470703 393.42501953 -381.50691406 392.66253906 -381.22070312 391.87695312 C-379.24146076 386.48292151 -379.24146076 386.48292151 -378 384 C-378.72703125 384.04640625 -379.4540625 384.0928125 -380.203125 384.140625 C-397.0555333 384.74558325 -410.32688251 376.49047168 -422.4375 365.5 C-435.2007225 353.48340735 -444.1568605 337.97086723 -445.16015625 320.15625 C-444.7651732 314.37601029 -442.67917007 311.35524019 -438.44921875 307.63671875 C-437.84722656 307.11722656 -437.24523437 306.59773438 -436.625 306.0625 C-435.0816466 304.71025603 -433.54028664 303.35573616 -432 302 C-431.46455566 301.54544434 -430.92911133 301.09088867 -430.37744141 300.62255859 C-420.22755195 291.89415933 -412.84760658 282.6270211 -411 269 C-410.84084493 262.83300473 -411.57604786 256.77020322 -412.3046875 250.65625 C-413.12936351 243.59482987 -413.22202452 236.60329934 -413.1875 229.5 C-413.18758057 228.38496094 -413.18766113 227.26992188 -413.18774414 226.12109375 C-413.08968217 210.17936433 -413.08968217 210.17936433 -411 206 C-411.75023437 206.04640625 -412.50046875 206.0928125 -413.2734375 206.140625 C-421.34978896 206.42543336 -428.25508085 205.74379336 -434.77734375 200.59765625 C-440.02128997 195.14021604 -442.32783256 187.73916724 -444.80078125 180.73046875 C-446.34708099 176.35072592 -448.29203 172.70502267 -450.9140625 168.859375 C-454.08009038 163.43840641 -453.85370392 156.36853052 -452.3515625 150.44140625 C-450.02057492 144.05609412 -446.46462506 139.07517208 -442 134 C-441.49984375 133.41734375 -440.9996875 132.8346875 -440.484375 132.234375 C-430.63174531 121.58557322 -416.49731873 111.8886482 -401.80078125 111.04296875 C-401.20652344 111.02878906 -400.61226562 111.01460937 -400 111 C-400.38414062 111.96421875 -400.76828125 112.9284375 -401.1640625 113.921875 C-401.65184365 115.19761031 -402.13877879 116.47366933 -402.625 117.75 C-402.88023437 118.38421875 -403.13546875 119.0184375 -403.3984375 119.671875 C-404.84040823 123.41844379 -404.84040823 123.41844379 -404.24609375 127.26953125 C-403.83488281 127.84058594 -403.42367187 128.41164062 -403 129 C-397.15609542 139.98654061 -398.93710657 150.08310672 -401 162 C-396.30584033 157.89261029 -393.1024146 153.77591847 -390.125 148.3125 C-369.9404625 111.49074386 -332.33631972 86.71594375 -292.77124023 75.08374023 C-281.14062107 71.81428275 -269.22556191 69.03805403 -257.26953125 67.26953125 C-248.83656682 66.0060159 -243.70807409 64.47483031 -238 58 C-216.43466682 35.56904263 -216.43466682 35.56904263 -202.921875 33.71484375 C-196.40587208 32.80414255 -193.75292363 28.69241402 -189.8828125 23.62890625 C-188.55559725 21.77576131 -187.26438145 19.89657218 -186 18 C-185.34 18 -184.68 18 -184 18 C-183.75636719 17.43410156 -183.51273437 16.86820313 -183.26171875 16.28515625 C-169.7701268 -8.15007994 -133.44544899 -18.78424454 -109 -26 C-108.14196777 -26.25571777 -107.28393555 -26.51143555 -106.39990234 -26.77490234 C-66.6096322 -38.15885989 -30.8721886 -24.96906439 0 0 Z M-173.9765625 26.3359375 C-178.5495547 30.79660142 -178.5495547 30.79660142 -181 36 C-168.64445007 36.19272088 -156.33767475 35.59950448 -144 35 C-148.56732852 35.92358936 -153.13525498 36.84415148 -157.7036438 37.76248169 C-159.31553574 38.08702165 -160.92725142 38.41243829 -162.53878784 38.73873901 C-178.23504419 41.91650141 -178.23504419 41.91650141 -185.87109375 43.14453125 C-186.85126465 43.30469727 -187.83143555 43.46486328 -188.84130859 43.62988281 C-190.58230951 43.90666853 -192.3260971 44.16676866 -194.07275391 44.40527344 C-205.34961129 46.21384797 -212.91312313 53.29432004 -220.625 61.25 C-221.43839844 62.0646875 -222.25179687 62.879375 -223.08984375 63.71875 C-227.25923105 67.28047135 -227.25923105 67.28047135 -229 72 C-229.66 72 -230.32 72 -231 72 C-232.50273886 73.44683052 -232.50273886 73.44683052 -234.0625 75.375 C-236.77923786 78.57546345 -239.54335219 81.71306063 -242.375 84.8125 C-245.50422827 88.27530082 -248.50500349 91.80679003 -251.4375 95.4375 C-255.34869291 100.27017815 -259.46031025 104.8742687 -263.6640625 109.453125 C-266.84001101 112.91586485 -269.94018247 116.43453466 -273 120 C-273.7940625 120.91523438 -274.588125 121.83046875 -275.40625 122.7734375 C-287.19629932 136.58768204 -305.41927438 160.30588103 -304.43359375 179.51171875 C-303.02271855 187.60836292 -297.78377042 193.81696845 -292.81079102 200.09716797 C-287.43364689 206.89770332 -282.62644913 214.10714013 -279 222 C-275.21957799 220.73985933 -274.55665294 219.3081005 -272.3125 216.0625 C-263.85070981 204.12095189 -254.46091338 192.27925333 -244 182 C-244.4218457 182.7027002 -244.84369141 183.40540039 -245.27832031 184.12939453 C-270.25291078 219.43053896 -270.25291078 219.43053896 -279 259 C-274.10544095 267.66810619 -262.89887282 275.92447067 -253.625 279.1875 C-235.1421793 283.22517835 -222.14878094 275.8202075 -206.73046875 266.95043945 C-192.17452767 258.59429498 -176.35048867 249.86703193 -159.375 248.3125 C-156.01686429 247.82568301 -154.53303439 247.59623533 -152.25390625 245.046875 C-150.85187163 242.40089869 -149.88568245 239.85993497 -149 237 C-148.69707031 236.04480469 -148.39414062 235.08960938 -148.08203125 234.10546875 C-142.35226456 214.44133988 -144.27675306 193.62404317 -147.5 173.6875 C-151.05203887 151.52353675 -152.69082139 127.96716029 -147 106 C-146.67 105.67 -146.34 105.34 -146 105 C-145.94577881 105.80477783 -145.89155762 106.60955566 -145.83569336 107.4387207 C-144.221116 130.33942415 -141.05918645 152.79642377 -137.10386658 175.40620422 C-132.4220633 202.37983083 -133.95758106 229.42729751 -144 255 C-145.83616511 256.83616511 -148.96224314 256.44390329 -151.4375 256.6875 C-173.08391646 259.31573269 -192.91157781 270.33648424 -211.55859375 281.02734375 C-225.25309019 288.87719699 -238.22379122 293.3524413 -254.0625 289.8125 C-264.80176678 286.8055053 -272.06448034 281.76516861 -280 274 C-280.9075 273.113125 -281.815 272.22625 -282.75 271.3125 C-283.4925 270.549375 -284.235 269.78625 -285 269 C-285.53753906 268.54238281 -286.07507813 268.08476562 -286.62890625 267.61328125 C-289.47800204 265.09470701 -290.86034185 263.76036106 -291.5625 259.9375 C-289.63736264 246.46153846 -289.63736264 246.46153846 -286.8359375 240.5390625 C-285.38443339 236.13028833 -286.45965493 232.35921854 -288.13671875 228.140625 C-292.38765566 220.21696426 -297.39325662 213.11386673 -302.84838867 205.97558594 C-310.52492608 195.88305525 -317.64353974 186.20250057 -316 173 C-309.97804264 147.600124 -292.46371883 124.42359383 -275.2578125 105.5390625 C-272.10639156 101.99507701 -269.13551992 98.31462303 -266.15234375 94.62890625 C-263.18823137 91.00849313 -260.11260732 87.4929259 -257 84 C-272.96843035 78.67718988 -302.89190425 92.78587573 -317.33325195 99.87646484 C-332.62237921 107.7512822 -345.70245683 118.05231581 -358 130 C-358.55905029 130.53351074 -359.11810059 131.06702148 -359.6940918 131.61669922 C-379.92770683 151.26811151 -394.09705333 181.39263877 -399 209 C-399.27457031 210.52173828 -399.27457031 210.52173828 -399.5546875 212.07421875 C-403.29063635 245.00955728 -396.30769164 277.95605048 -383 308 C-382.46802002 309.2063208 -382.46802002 309.2063208 -381.92529297 310.43701172 C-375.645507 324.51921282 -368.57647917 338.70869895 -358.9609375 350.84765625 C-356.01188342 357.45305787 -358.74228604 365.835202 -360.1875 372.5625 C-360.52044067 374.14780518 -360.52044067 374.14780518 -360.86010742 375.76513672 C-362.44238573 383.05418401 -364.44152732 390.00563213 -367.08203125 396.9765625 C-368.25750052 400.84810811 -368.83827138 404.17271546 -367.109375 407.94140625 C-356.52421626 420.56451222 -330.61554185 424.60293854 -315 426 C-305.73840419 426.60527887 -305.73840419 426.60527887 -297 424 C-293.66969863 420.43181996 -293 417.49488994 -293 412.671875 C-293 401.01820219 -289.32080839 393.60943228 -283 384 C-277.47279547 375.32004634 -275.70193017 369.14619396 -275.5859375 358.9140625 C-275.56657135 357.85714203 -275.5472052 356.80022156 -275.5272522 355.71127319 C-275.46767086 352.34926316 -275.42115658 348.98721849 -275.375 345.625 C-275.33680052 343.33982916 -275.29774764 341.05467242 -275.2578125 338.76953125 C-275.16038734 333.17976256 -275.08064738 327.59013651 -275 322 C-272.525 333.88 -272.525 333.88 -270 346 C-246.27216004 349.86866956 -222.63345458 349.7501339 -199 345 C-198.59007812 343.81921875 -198.18015625 342.6384375 -197.7578125 341.421875 C-197.21368147 339.86453448 -196.6694029 338.3072455 -196.125 336.75 C-195.85558594 335.97269531 -195.58617187 335.19539063 -195.30859375 334.39453125 C-194.91220703 333.26337891 -194.91220703 333.26337891 -194.5078125 332.109375 C-194.26691895 331.41811523 -194.02602539 330.72685547 -193.77783203 330.01464844 C-192.97440978 327.93371924 -192.02798072 325.978378 -191 324 C-191.0721875 324.74121094 -191.144375 325.48242188 -191.21875 326.24609375 C-192.32023445 338.74488255 -193.36487449 351.77228645 -190 364 C-194.875 359.25 -194.875 359.25 -196 357 C-200.79375317 358.36549333 -204.6485882 360.48903846 -208.75 363.25 C-213.75988681 366.57128062 -218.80720435 369.67141426 -224.109375 372.515625 C-226.57552328 374.45185712 -227.1926997 375.9893497 -228 379 C-228.02795967 396.19519964 -213.00981104 415.08094066 -202 427 C-196.26080763 432.00652951 -191.34940767 433.44663538 -183.84375 433.328125 C-176.83982609 432.51997993 -173.05524835 428.30343543 -168.8125 423 C-167.89404297 421.7625 -167.89404297 421.7625 -166.95703125 420.5 C-162.85657942 415.26189786 -157.90101736 411.14844483 -152.75 407 C-152.0590625 406.44038574 -151.368125 405.88077148 -150.65625 405.30419922 C-144.83571657 400.61558157 -138.91666675 396.06110986 -132.93652344 391.578125 C-125.01166302 385.60060449 -118.41460646 379.9422944 -113.0625 371.5 C-112.55307861 370.71463867 -112.04365723 369.92927734 -111.51879883 369.12011719 C-109.99564762 366.7569771 -108.49388339 364.3817289 -107 362 C-106.56977539 361.31744141 -106.13955078 360.63488281 -105.69628906 359.93164062 C-96.64973307 345.48902042 -89.94486839 331.08925725 -84.8125 314.875 C-84.55231079 314.06549896 -84.29212158 313.25599792 -84.02404785 312.42196655 C-77.56140709 293.58537573 -77.56140709 293.58537573 -75 274 C-75.81082031 273.59910156 -76.62164062 273.19820313 -77.45703125 272.78515625 C-89.21606616 266.74821283 -98.54611147 259.24640357 -107 249 C-106.26136719 249.43570312 -105.52273438 249.87140625 -104.76171875 250.3203125 C-92.78859209 257.34900947 -80.82628227 264.35009702 -67.6015625 268.80859375 C-60.55384995 271.33686238 -55.78812166 276.57923613 -50.49609375 281.671875 C-39.50531086 292.23889514 -28.15172502 302.67528024 -12.2265625 302.37890625 C-1.82717733 301.15767095 7.67035568 295.33246447 14.25 287.3125 C19.31639151 280.09839905 21.32172438 271.53123441 23 263 C20.69 262.67 18.38 262.34 16 262 C14.17080204 266.00681457 12.72113045 269.87244428 11.5625 274.125 C10.0487989 279.17067033 8.66944235 282.51588802 3.87109375 285.18359375 C-5.12098056 289.25043174 -13.46253109 288.23064115 -23 287 C-21.26075728 290.2610801 -20.01645215 290.99383044 -16.5 292.3125 C-11.30078798 293.42800258 -6.2177465 292.70976699 -1 292 C-3.55919286 294.55919286 -7.55845671 295.34889722 -11 296 C-16.62312739 295.8649312 -21.35916216 295.05013622 -26.125 292 C-31.33024766 283.67160374 -30.00818449 275.21789604 -28 266 C-27.46603599 264.03955243 -26.9245091 262.08114723 -26.375 260.125 C-24.1650447 251.74279582 -24.01060797 242.45491614 -26 234 C-24.95392578 234.70962891 -24.95392578 234.70962891 -23.88671875 235.43359375 C-6.06351114 246.59758093 15.53239006 251.9046619 36 256 C37.22203125 256.24492187 38.4440625 256.48984375 39.703125 256.7421875 C63.52977293 260.78717657 89.6011059 258.27469663 109.875 244.25 C111.61413522 242.87132095 113.32263488 241.45320112 115 240 C115.91136719 239.21109375 116.82273437 238.4221875 117.76171875 237.609375 C138.48271048 218.30446221 148.89418313 188.0547781 150.12109375 160.25634766 C151.00576788 132.91549368 151.33454316 86.06666982 132.125 63.875 C131.11105078 62.88738712 130.08052798 61.9142929 129 61 C125.98103837 62.50948081 125.89557699 64.73296778 124.8125 67.875 C119.68397624 81.44700636 113.02508026 88.65180429 100.625 96 C91.83260749 98.42548759 82.72720415 97.20642633 74 95 C73.03607451 100.21059025 73.13113731 104.39080391 73.9375 109.6875 C76.52528612 128.55776633 74.89668447 155.65497329 64 172 C64.58436989 166.4059348 65.30181556 160.85870184 66.15527344 155.29980469 C67.88386211 143.94583736 68.65715981 133.41598979 67 122 C66.67 121.67 66.34 121.34 66 121 C60.50126402 121.1122191 57.31518317 122.76321862 52.89453125 125.94140625 C47.2847678 132.03696365 45.23905586 140.79314557 42.75 148.5 C42.38648438 149.60859375 42.02296875 150.7171875 41.6484375 151.859375 C40.76009256 154.57116482 39.87743867 157.28466578 39 160 C39 147.68798599 39.79525243 129.09609423 48.75 119.8125 C49.4925 119.214375 50.235 118.61625 51 118 C49.16072228 118.3218736 47.32858109 118.68456307 45.5 119.0625 C44.4790625 119.25972656 43.458125 119.45695313 42.40625 119.66015625 C33.73103319 123.07254084 29.27644932 130.01703401 25 137.9375 C24.51144531 138.81212891 24.02289063 139.68675781 23.51953125 140.58789062 C22.3322634 142.71798883 21.1596746 144.85479442 20 147 C28.72517104 120.48847259 28.72517104 120.48847259 37 116.1875 C42.34493717 113.66983905 46.45156798 112.86119247 52.375 112.875 C53.47585938 112.87242187 54.57671875 112.86984375 55.7109375 112.8671875 C58.88996116 112.99555663 61.87772455 113.40573005 65 114 C64.67 111.03 64.34 108.06 64 105 C54.43238476 104.05487084 45.56761524 104.05487084 36 105 C36.99902344 104.68546875 37.99804688 104.3709375 39.02734375 104.046875 C40.33101444 103.61544441 41.63438474 103.18310536 42.9375 102.75 C43.59685547 102.54503906 44.25621094 102.34007812 44.93554688 102.12890625 C48.70021314 100.94702544 48.70021314 100.94702544 51.03125 97.96875 C50.98759157 95.21826876 49.79103463 94.00595879 48 92 C44.535 92.495 44.535 92.495 41 93 C40.34 94.65 39.68 96.3 39 98 C38.15901344 93.98195309 37.94595055 90.98196457 39 87 C35.04 86.505 35.04 86.505 31 86 C42.89801729 80.58930072 52.08817844 76.50893163 65 81 C59.93023201 67.35259425 51.27100595 54.01371817 39 46 C38.27425781 45.46375 37.54851562 44.9275 36.80078125 44.375 C29.53984257 39.38235456 22.61882052 38.66652212 14 38 C17.96 37.01 17.96 37.01 22 36 C18.83203244 32.75297443 15.60432388 29.76986763 12.0625 26.9375 C8.32678945 23.92096367 4.659459 20.85347451 1.04345703 17.69482422 C-18.60888195 0.58148982 -40.77329719 -16.29281291 -68 -17 C-68.8971875 -17.061875 -69.794375 -17.12375 -70.71875 -17.1875 C-106.70602304 -18.67151126 -150.33874221 -0.64082242 -173.9765625 26.3359375 Z M114.20703125 62.73828125 C111.79607931 65.20897359 109.65398442 67.80286925 107.5 70.5 C100.92200951 78.65001873 95.38589857 83.38895865 85.36669922 86.78442383 C80.84417494 88.37559529 78.15658385 90.41489329 75 94 C87.32599182 95.63399315 94.40094688 94.34958665 104.5625 87.3125 C114.44441492 79.74100463 120.91112047 71.7343462 127 61 C125.7511573 59.4166747 125.7511573 59.4166747 124 58 C118.89155316 58 117.82841556 59.42595757 114.20703125 62.73828125 Z M65 83 C65.66 83.66 66.32 84.32 67 85 C67 84.34 67 83.68 67 83 C66.34 83 65.68 83 65 83 Z M-419 128 C-433.38346378 140.41513778 -433.38346378 140.41513778 -441.875 157.0625 C-442.11940642 162.80605081 -440.07686176 166.9791178 -437.13671875 171.77734375 C-435.03835747 175.88032508 -433.76077418 180.31977161 -432.34375 184.6953125 C-430.54000884 189.13125732 -428.61928547 192.17152837 -424.3125 194.375 C-419.94112793 195.19978718 -416.34061615 194.83727621 -412 194 C-411.26910156 193.89429688 -410.53820312 193.78859375 -409.78515625 193.6796875 C-407.34952727 193.10819914 -405.94510237 192.59463347 -404 191 C-402.03896123 187.14257208 -400.77767118 183.2557596 -400 179 C-400.33 178.34 -400.66 177.68 -401 177 C-401.59425781 177.40992188 -402.18851563 177.81984375 -402.80078125 178.2421875 C-408.87445411 182.19054715 -414.61660273 185 -422 185 C-424.4375 183.625 -424.4375 183.625 -426 181 C-426.39058594 180.36835938 -426.78117187 179.73671875 -427.18359375 179.0859375 C-429.41055318 175.18693311 -429.41055318 175.18693311 -430 173 C-429.02051205 170.3632976 -427.69217689 168.5863627 -426 166.3125 C-422.41518097 160.37514349 -421.98060571 154.39692032 -421.5625 147.5625 C-421.23963029 142.36612517 -420.29325868 137.91074186 -418.5234375 133.0234375 C-417.75784981 130.82021507 -417.75784981 130.82021507 -419 128 Z M-413 135 C-413 136.65 -413 138.3 -413 140 C-411.02 140.99 -411.02 140.99 -409 142 C-409.65585189 138.39007621 -409.65585189 138.39007621 -411 135 C-411.66 135 -412.32 135 -413 135 Z M-412 154 C-412.09796875 154.68964844 -412.1959375 155.37929688 -412.296875 156.08984375 C-413.33323747 162.60284581 -415.01054885 168.12268098 -418 174 C-411.94099499 172.60176807 -407.55818232 169.06877748 -403 165 C-402.67 164.34 -402.34 163.68 -402 163 C-402.763125 162.2575 -403.52625 161.515 -404.3125 160.75 C-407 158 -407 158 -408.6875 155.6875 C-409.120625 155.130625 -409.55375 154.57375 -410 154 C-410.66 154 -411.32 154 -412 154 Z M-403 288 C-403.1647583 288.52279541 -403.3295166 289.04559082 -403.49926758 289.58422852 C-406.40125487 297.36284764 -411.77569523 302.31661696 -417.6875 307.9375 C-419.61230332 309.79646561 -421.53052473 311.66205805 -423.44921875 313.52734375 C-424.29830811 314.33937256 -425.14739746 315.15140137 -426.0222168 315.98803711 C-428.11535238 318.11734588 -428.99081873 319.04514749 -429.01953125 322.03125 C-428.06193769 333.4501015 -423.5705572 342.3807076 -416 351 C-415.34 351 -414.68 351 -414 351 C-413.77054687 351.58007812 -413.54109375 352.16015625 -413.3046875 352.7578125 C-408.59897066 360.84488277 -395.59422906 367.03499207 -386.86328125 369.63671875 C-381.99459475 370.58595951 -379.01107322 370.64164262 -374.75 367.9375 C-371.62051752 364.98420822 -370.26628044 362.09678966 -369 358 C-369.46244677 354.85826698 -370.71373847 352.52778188 -372.3359375 349.82421875 C-373.05861816 348.60037476 -373.05861816 348.60037476 -373.79589844 347.35180664 C-374.31700195 346.47258545 -374.83810547 345.59336426 -375.375 344.6875 C-385.90905614 326.52811583 -394.27369893 307.87969576 -401 288 C-401.66 288 -402.32 288 -403 288 Z M-72 305 C-72.32162109 305.97122803 -72.64324219 306.94245605 -72.97460938 307.94311523 C-83.09019302 338.39375197 -93.78416261 367.00333397 -116 391 C-115.2100498 393.16324131 -115.2100498 393.16324131 -113.19482422 393.62182617 C-104.41512567 395.31009863 -95.6896311 395.33798365 -86.78222656 395.31567383 C-84.10962284 395.31248163 -81.4380951 395.33615764 -78.765625 395.36132812 C-77.05468888 395.3635986 -75.34374982 395.36430579 -73.6328125 395.36328125 C-72.84004913 395.372491 -72.04728577 395.38170074 -71.23049927 395.39118958 C-66.64539588 395.35285072 -63.61089067 394.90563194 -60 392 C-56.76620943 386.53600904 -56.22207431 381.28402314 -57 375 C-57.32605225 374.28650391 -57.65210449 373.57300781 -57.98803711 372.83789062 C-59.25774462 369.27719578 -59.38302777 365.90050567 -59.4921875 362.1640625 C-59.55817006 360.60805489 -59.62459125 359.05206583 -59.69140625 357.49609375 C-59.78522197 355.0768148 -59.87392712 352.65757967 -59.95361328 350.23779297 C-60.33192114 339.25780384 -61.61917146 329.49015373 -65 319 C-65.25152832 318.21866699 -65.50305664 317.43733398 -65.76220703 316.63232422 C-66.33855927 314.9473034 -66.97731489 313.2839096 -67.625 311.625 C-68.02976562 310.56539063 -68.43453125 309.50578125 -68.8515625 308.4140625 C-69.76158586 305.86272042 -69.76158586 305.86272042 -72 305 Z " fill="#000000" transform="translate(477,112)"/>
<path d="M0 0 C-2.97 2.31 -5.94 4.62 -9 7 C-7.9275 7.804375 -6.855 8.60875 -5.75 9.4375 C-1.57979478 12.96483383 0.18723637 16.93326936 2 22 C3.134375 21.67 4.26875 21.34 5.4375 21 C9.99795849 19.84152933 14.32161006 19.80506709 19 20 C16.56253146 22.43746854 14.5631072 22.98148996 11.3125 24.125 C-3.49342239 29.73429218 -25.54351112 40.08702225 -33 55 C-33.66 54.67 -34.32 54.34 -35 54 C-31.67386079 46.14429432 -27.27829052 39.81976369 -21 34 C-20.01 33.67 -19.02 33.34 -18 33 C-20.06139645 30.63321149 -21.50912627 29.1718058 -24.5 28.125 C-27.35333018 27.98233349 -28.65288569 28.40731529 -31 30 C-32.14352916 32.28705831 -32.10334439 33.59264762 -32.0625 36.125 C-32.041875 37.40375 -32.02125 38.6825 -32 40 C-36.19813062 36.25572134 -38.07776117 33.1596937 -40 28 C-40.84304688 28.51691406 -41.68609375 29.03382813 -42.5546875 29.56640625 C-43.65039062 30.22511719 -44.74609375 30.88382813 -45.875 31.5625 C-46.96554687 32.22378906 -48.05609375 32.88507813 -49.1796875 33.56640625 C-50.11039062 34.03949219 -51.04109375 34.51257813 -52 35 C-52.66 34.67 -53.32 34.34 -54 34 C-53.45472656 33.40574219 -52.90945313 32.81148437 -52.34765625 32.19921875 C-48.23024219 27.67358244 -44.24559548 23.10247376 -40.4375 18.3125 C-34.1247794 10.57750266 -28.806678 5.38431594 -19 3 C-17.99646484 2.74259033 -17.99646484 2.74259033 -16.97265625 2.47998047 C-14.67227983 1.89043426 -12.36860238 1.3167193 -10.0625 0.75 C-9.30396729 0.56219971 -8.54543457 0.37439941 -7.76391602 0.1809082 C-2.23607551 -1.11803775 -2.23607551 -1.11803775 0 0 Z " fill="#000000" transform="translate(457,206)"/>
<path d="M0 0 C-2.87735106 1.91823404 -5.18243346 2.85650787 -8.4375 3.9453125 C-9.49710937 4.29980469 -10.55671875 4.65429688 -11.6484375 5.01953125 C-12.75445312 5.38433594 -13.86046875 5.74914062 -15 6.125 C-16.10601562 6.49753906 -17.21203125 6.87007812 -18.3515625 7.25390625 C-19.94097656 7.78177734 -19.94097656 7.78177734 -21.5625 8.3203125 C-22.53316406 8.64273926 -23.50382812 8.96516602 -24.50390625 9.29736328 C-27 10 -27 10 -30 10 C-30.23976563 10.52464844 -30.47953125 11.04929688 -30.7265625 11.58984375 C-32.05352458 14.10130265 -33.58636303 16.4185862 -35.17382812 18.77148438 C-40.64251525 26.9256081 -44.92536437 35.05962044 -46 45 C-46.66 44.67 -47.32 44.34 -48 44 C-50.09895185 34.82381309 -50.02189583 25.54652864 -46 17 C-62.34003528 28.1251304 -69.9341142 55.35736639 -77 73 C-77.33 73 -77.66 73 -78 73 C-77.45837867 66.08553553 -75.99247959 60.00822453 -73.8125 53.4375 C-73.34058228 51.99503906 -73.34058228 51.99503906 -72.85913086 50.5234375 C-71.91958186 47.67755375 -70.96319758 44.83795634 -70 42 C-69.74025391 41.22543457 -69.48050781 40.45086914 -69.21289062 39.65283203 C-65.85362753 29.74390651 -61.48325047 20.9068028 -56 12 C-55.34 12 -54.68 12 -54 12 C-54 11.34 -54 10.68 -54 10 C-46.9693049 2.61352869 -37.06551986 2.4863128 -27.5625 1.625 C-26.00172519 1.4618008 -24.44117377 1.29645021 -22.88085938 1.12890625 C-15.2406187 0.33483885 -7.68876913 -0.20010811 0 0 Z " fill="#000000" transform="translate(331,171)"/>
<path d="M0 0 C0 4.17214336 -2.33093674 5.88490121 -5 8.8125 C-17.59011148 23.23976899 -23.72838432 39.14247363 -25.54296875 58.0859375 C-26 61 -26 61 -28 63 C-29.4288653 46.14325125 -30.36240859 29.51298165 -19.02734375 15.57421875 C-13.33865508 9.59644971 -6.6896714 4.78803892 0 0 Z " fill="#000000" transform="translate(34,222)"/>
<path d="M0 0 C-1.63195312 0.81791016 -1.63195312 0.81791016 -3.296875 1.65234375 C-22.84609467 11.61327476 -35.11157815 23.01505934 -46 42 C-46.99577575 43.66919395 -47.99393927 45.33698479 -49 47 C-50.60009518 43.79980965 -49.09386793 41.50670549 -48 38.1875 C-43.28316796 24.28879206 -37.62782418 13.2838084 -24.375 6.3125 C-7.11250998 -2.07392814 -7.11250998 -2.07392814 0 0 Z " fill="#000000" transform="translate(323,81)"/>
<path d="M0 0 C-0.845625 0.4846875 -1.69125 0.969375 -2.5625 1.46875 C-18.24645495 10.73654156 -25.32367707 20.80194926 -31 38 C-34.09906098 32.71554542 -33.7846676 26.58617614 -32.5 20.71484375 C-30.15410046 13.7971059 -25.77565952 8.91535436 -19.5234375 5.23828125 C-5.26925485 -1.75641828 -5.26925485 -1.75641828 0 0 Z " fill="#000000" transform="translate(419,170)"/>
<path d="M0 0 C-2 2 -2 2 -5.4140625 3.3125 C-13.26649363 6.36185139 -18.2810964 9.05203719 -21.88427734 16.94726562 C-23.12034189 20.05417997 -24.27535568 23.17549033 -25.29248047 26.36108398 C-26 28 -26 28 -28 29 C-27.57505956 25.95610037 -27.13555172 22.91551021 -26.6875 19.875 C-26.56955078 19.0190625 -26.45160156 18.163125 -26.33007812 17.28125 C-24.94258187 8.03127495 -24.94258187 8.03127495 -22 4 C-19.42495883 2.86964155 -17.44044216 2.19889079 -14.75 1.625 C-14.10675781 1.46128906 -13.46351563 1.29757812 -12.80078125 1.12890625 C-8.47718926 0.09368 -4.43112507 -0.14923478 0 0 Z " fill="#000000" transform="translate(461,333)"/>
<path d="M0 0 C-0.76183594 0.53367187 -1.52367187 1.06734375 -2.30859375 1.6171875 C-9.46808942 6.78346528 -15.28147222 12.2172619 -21 19 C-21.66 19.66 -22.32 20.32 -23 21 C-22.54943677 13.79098829 -19.75134167 8.90856119 -14.8125 3.6875 C-10.87299724 1.32379834 -4.41936471 -2.20968236 0 0 Z " fill="#000000" transform="translate(299,83)"/>
<path d="M0 0 C0.66 0.33 1.32 0.66 2 1 C1.55269531 1.64324219 1.10539063 2.28648437 0.64453125 2.94921875 C-3.48572277 9.1225835 -6.46629125 15.15616961 -8.95703125 22.15234375 C-9.83447621 24.54806427 -10.80286562 26.75198748 -12 29 C-12.0816082 26.62429457 -12.14077222 24.25144159 -12.1875 21.875 C-12.21263672 21.20984375 -12.23777344 20.5446875 -12.26367188 19.859375 C-12.35262551 13.81052797 -10.93741888 10.00099567 -6.73828125 5.6640625 C-5.93777344 4.99117187 -5.13726562 4.31828125 -4.3125 3.625 C-3.50425781 2.93664062 -2.69601562 2.24828125 -1.86328125 1.5390625 C-1.24839844 1.03117188 -0.63351562 0.52328125 0 0 Z " fill="#000000" transform="translate(12,233)"/>
<path d="" fill="#000000" transform="translate(0,0)"/>
<path d="" fill="#000000" transform="translate(0,0)"/>
</svg>
