<?xml version="1.0" encoding="UTF-8"?>
<svg version="1.1" xmlns="http://www.w3.org/2000/svg" width="640" height="640">
<path d="M0 0 C17.49522442 13.51338102 27.6311608 33.23015641 38.625 51.9296875 C41.68332974 57.12796072 44.77997256 62.29897022 47.9375 67.4375 C48.35781494 68.12207275 48.77812988 68.80664551 49.21118164 69.51196289 C50.11740871 70.98769427 51.02374539 72.46335834 51.93017578 73.93896484 C55.25804291 79.368098 58.5674529 84.80847231 61.875 90.25 C62.42143661 91.14872833 62.42143661 91.14872833 62.97891235 92.06561279 C67.92018819 100.19688171 72.80254845 108.35999805 77.625 116.5625 C84.16546518 128.70020138 84.16546518 128.70020138 92.5 139.5 C99.92758573 139.16516915 106.8368284 137.24472657 113.9765625 135.2734375 C115.8819306 134.75682699 117.78730034 134.24022252 119.69272423 133.72381783 C121.7456809 133.16617495 123.79774836 132.60536133 125.84960938 132.04370117 C132.49362976 130.22570604 139.14392491 128.43085441 145.79347992 126.63323212 C148.19719434 125.9832281 150.60071016 125.33249337 153.00421143 124.68170166 C171.87285298 119.5755893 190.76368601 114.55316762 209.65936279 109.54815674 C213.54218666 108.5195168 217.42436187 107.48848203 221.30596924 106.45526123 C225.92104886 105.22681544 230.53720921 104.00251862 235.1542244 102.78136826 C236.8581796 102.32999229 238.56176315 101.87721046 240.26493454 101.42288589 C263.97627633 95.10122051 263.97627633 95.10122051 276.4375 95.1875 C277.30358887 95.19313965 278.16967773 95.1987793 279.06201172 95.20458984 C291.00939686 95.4300122 301.10155173 98.13797229 310.3125 106.05859375 C316.12234083 112.11535281 318.66889353 120.03483824 319 128.3125 C318.24022339 146.71333981 308.59798414 160.74870027 296.83740234 173.97265625 C294.78053266 176.32164798 292.8322992 178.7553935 290.875 181.1875 C287.98750173 184.73896846 285.02031979 188.1793029 281.9375 191.5625 C279.08854034 194.69096172 276.36697555 197.86278893 273.75 201.1875 C269.77652785 206.23166824 265.57781529 211.05745859 261.35522461 215.89233398 C258.10324017 219.62445187 254.92150197 223.39682202 251.8125 227.25 C248.82004153 230.94817537 245.71999522 234.49806971 242.5 238 C238.45997917 242.39429958 234.65367551 246.92113347 230.90234375 251.5625 C226.71067951 256.68791709 222.37014955 261.68597571 218.04833984 266.70166016 C215.03005423 270.20728801 212.02212655 273.7218101 209.01391602 277.23608398 C206.4464206 280.23422892 203.87294067 283.22689429 201.2890625 286.2109375 C198.76772095 289.12545569 196.26124153 292.05183789 193.77294922 294.99462891 C192.64618118 296.32712827 191.51301372 297.65421047 190.37890625 298.98046875 C189.82074219 299.66753906 189.26257813 300.35460937 188.6875 301.0625 C188.22730469 301.62066406 187.76710938 302.17882812 187.29296875 302.75390625 C186.11804493 305.34105377 186.75472664 306.75919621 187.5 309.5 C188.65011438 312.00501434 189.8374475 314.43229637 191.11328125 316.87109375 C191.47862976 317.58081833 191.84397827 318.29054291 192.22039795 319.02177429 C193.41136458 321.33039145 194.61161804 323.63402712 195.8125 325.9375 C196.64341423 327.54201699 197.47406035 329.14667286 198.30444336 330.75146484 C203.07134629 339.94299207 207.93614109 349.07331445 212.95043945 358.13256836 C217.85886861 367.04592672 222.47230416 376.10774495 227.10800171 385.1647644 C231.58354543 393.90447813 236.1259663 402.59209588 240.875 411.1875 C266.98890502 458.63696418 266.98890502 458.63696418 259.5 485.5 C255.56173618 496.46536202 247.26283055 505.32427007 237.5 511.5 C236.79875 511.95117188 236.0975 512.40234375 235.375 512.8671875 C221.94078407 520.53739862 203.8321724 521.42725509 189.1875 517.625 C179.07093113 514.84414221 169.08145403 511.59494216 159.07910156 508.43164062 C149.899625 505.53269038 140.69210896 502.77649642 131.4375 500.125 C119.57006162 496.7136935 107.74197373 493.18591974 95.9375 489.5625 C95.11604492 489.31062927 94.29458984 489.05875854 93.44824219 488.79925537 C84.78512952 486.13731323 76.14727454 483.41730962 67.5625 480.51171875 C66.86504166 480.27602676 66.16758331 480.04033478 65.44898987 479.79750061 C62.19719296 478.69550397 58.951438 477.57987034 55.71069336 476.44555664 C54.57768799 476.0561792 53.44468262 475.66680176 52.27734375 475.265625 C51.30015381 474.92305664 50.32296387 474.58048828 49.31616211 474.22753906 C46.22357287 473.42858666 43.68087698 473.23052371 40.5 473.5 C37.9142869 475.50097512 37.9142869 475.50097512 35.6875 478.3125 C35.25937012 478.81096436 34.83124023 479.30942871 34.39013672 479.82299805 C33.07359069 481.36657664 31.78410266 482.9293785 30.5 484.5 C29.76652344 485.386875 29.03304688 486.27375 28.27734375 487.1875 C26.81607101 488.9696693 25.3618665 490.75765297 23.9140625 492.55078125 C21.16138127 495.9136847 18.33818231 499.20929569 15.5 502.5 C11.94528455 506.62451706 8.43207214 510.77208505 5 515 C0.61054182 520.40362902 -3.91682809 525.68038455 -8.45703125 530.95703125 C-11.34230575 534.31142628 -14.20679062 537.68291989 -17.0625 541.0625 C-17.73708252 541.86083252 -17.73708252 541.86083252 -18.42529297 542.67529297 C-19.33068442 543.7471334 -20.23595817 544.81907326 -21.14111328 545.89111328 C-23.42546186 548.59572289 -25.71289508 551.29772127 -28 554 C-28.91668126 555.08332099 -29.83334793 556.16665432 -30.75 557.25 C-32.58333333 559.41666667 -34.41666667 561.58333333 -36.25 563.75 C-36.93050415 564.55425415 -36.93050415 564.55425415 -37.62475586 565.37475586 C-38.54217797 566.45895238 -39.45965852 567.54309945 -40.37719727 568.62719727 C-42.65778544 571.32192311 -44.93737815 574.01747812 -47.21484375 576.71484375 C-50.97744965 581.16917469 -54.74065189 585.62242826 -58.54296875 590.04296875 C-59.05166504 590.63440674 -59.56036133 591.22584473 -60.08447266 591.83520508 C-61.10812958 593.02449651 -62.13253908 594.21314062 -63.15771484 595.40112305 C-66.21258594 598.9538875 -69.1570898 602.57292114 -72.0625 606.25 C-81.70802718 618.06794321 -94.93697137 629.9358907 -110.5 632.5 C-121.54626829 633.31379513 -129.109317 632.26854735 -137.75 625.25 C-147.02081198 616.49321323 -151.39488467 604.41895943 -151.82897949 591.79058838 C-151.85035171 589.61602693 -151.85346792 587.44123671 -151.84179688 585.26660156 C-151.83732796 584.05817722 -151.83285904 582.84975288 -151.8282547 581.60470963 C-151.6253118 565.85558103 -150.01935319 550.21718239 -148.47106361 534.55424404 C-148.04097961 530.17374492 -147.6263273 525.79178196 -147.20983887 521.40997314 C-146.42356035 513.16148335 -145.6239782 504.91434335 -144.81926107 496.66763425 C-143.90177138 487.25826345 -142.99965042 477.84743758 -142.09863567 468.43647718 C-140.24917599 449.12268458 -138.38101504 429.81074365 -136.5 410.5 C-137.6486982 410.28409462 -137.6486982 410.28409462 -138.82060242 410.06382751 C-144.54550028 408.85913324 -149.91002767 406.26861604 -155.3125 404.0625 C-156.00683136 403.78022552 -156.70116272 403.49795105 -157.41653442 403.2071228 C-171.07915103 397.63918426 -184.53190346 391.63330089 -197.9621582 385.5300293 C-206.81681406 381.50682035 -215.68416739 377.52038709 -224.59765625 373.62890625 C-225.51389267 373.22869766 -226.43012909 372.82848907 -227.37413025 372.41615295 C-231.762978 370.50087466 -236.15434727 368.59159921 -240.54858398 366.6887207 C-267.37225809 355.02841294 -293.37419292 342.96722678 -305.5 314.5 C-309.12704475 304.30973141 -308.81288322 292.4827973 -304.94921875 282.41015625 C-294.91130411 262.25315785 -275.01256715 252.49631482 -254.61474609 245.58984375 C-248.28716006 243.48342781 -241.93277557 241.46077448 -235.57714844 239.44091797 C-229.21902591 237.41677025 -222.87536119 235.348709 -216.53197861 233.27895927 C-187.14933692 223.69487542 -157.72990207 214.27106343 -128.12695312 205.38574219 C-127.10096008 205.07514862 -126.07496704 204.76455505 -125.0178833 204.44454956 C-123.12536631 203.87168646 -121.23122804 203.30413859 -119.33514404 202.74319458 C-118.50170471 202.49004486 -117.66826538 202.23689514 -116.80957031 201.97607422 C-115.73464325 201.65472 -115.73464325 201.65472 -114.63800049 201.32687378 C-111.83076109 200.2411712 -109.84875377 199.4447937 -107.5 197.5 C-106.35653218 194.67238653 -105.92259218 191.77461883 -105.44702148 188.77197266 C-105.20989142 187.44380996 -105.20989142 187.44380996 -104.96797085 186.08881569 C-104.63197535 184.19439084 -104.30548038 182.29826068 -103.98765182 180.40070343 C-103.51295595 177.57706601 -103.01054631 174.75996892 -102.49758911 171.9430542 C-101.61158444 167.06196848 -100.74984787 162.17698265 -99.89637947 157.29011154 C-99.32985094 154.04649453 -98.76028108 150.80342304 -98.19004822 147.56045532 C-96.97825293 140.66576063 -95.77016478 133.7704192 -94.5625 126.875 C-85.47243301 74.9818007 -85.47243301 74.9818007 -82.578125 59.80078125 C-82.39375381 58.82599823 -82.20938263 57.85121521 -82.01942444 56.84689331 C-77.74363775 34.85975795 -67.30768749 12.72303353 -48.921875 -0.94921875 C-33.5626143 -10.7841002 -14.96127026 -10.11466158 0 0 Z M-21.5 92.5 C-27.20963998 121.95411048 -32.56867416 151.46112576 -37.75500488 181.01153564 C-39.24664793 189.5091978 -40.74189213 198.0062236 -42.23978233 206.50278664 C-42.75255521 209.41529619 -43.26309622 212.32819018 -43.77339172 215.24113464 C-44.5291307 219.54660932 -45.29733436 223.849662 -46.07678604 228.15090561 C-46.35624892 229.70209423 -46.63179756 231.25399376 -46.90319443 232.80661392 C-47.27274792 234.91472632 -47.65704615 237.01959729 -48.0456543 239.12426758 C-48.25562546 240.29226395 -48.46559662 241.46026031 -48.68193054 242.66365051 C-49.54186464 245.64514996 -49.9888128 246.74407335 -52.5 248.5 C-54.9828186 249.53688049 -54.9828186 249.53688049 -57.99462891 250.48266602 C-59.70351036 251.02682159 -59.70351036 251.02682159 -61.44691467 251.58197021 C-62.69419846 251.96870911 -63.94148224 252.355448 -65.2265625 252.75390625 C-66.54671972 253.1705131 -67.86661462 253.58795196 -69.18626404 254.00616455 C-72.75319626 255.13407101 -76.32360702 256.25057234 -79.89473343 257.36511612 C-83.62784815 258.53242682 -87.35759277 259.71040368 -91.08764648 260.88745117 C-97.21707559 262.82029973 -103.3483113 264.74730477 -109.48095703 266.66992188 C-117.88543212 269.30505782 -126.28544273 271.95416128 -134.68359375 274.609375 C-135.63963501 274.91161893 -135.63963501 274.91161893 -136.61499023 275.2199688 C-139.7371262 276.20700519 -142.85925868 277.19405264 -145.98138428 278.18112183 C-150.546713 279.62344139 -155.11311953 281.06232679 -159.6796875 282.50071716 C-162.8434982 283.49850886 -166.00602404 284.50029312 -169.16845703 285.50244141 C-173.62731631 286.91412962 -178.09283783 288.30248432 -182.56201172 289.68115234 C-184.85257613 290.39538894 -187.14310464 291.1097407 -189.43359375 291.82421875 C-191.03473778 292.31158257 -191.03473778 292.31158257 -192.66822815 292.80879211 C-194.14427773 293.27215218 -194.14427773 293.27215218 -195.65014648 293.74487305 C-196.51671371 294.01220749 -197.38328094 294.27954193 -198.27610779 294.55497742 C-200.60782252 295.54581819 -201.86004287 296.59502041 -203.5 298.5 C-202.69790604 298.81707916 -202.69790604 298.81707916 -201.87960815 299.14056396 C-156.62163977 317.03279024 -156.62163977 317.03279024 -139.25 324 C-122.9005814 330.5537548 -106.53144564 337.06087821 -90.07421875 343.33984375 C-88.87635742 343.7972998 -87.67849609 344.25475586 -86.44433594 344.72607422 C-84.15858318 345.59715543 -81.87153117 346.46483729 -79.58300781 347.32861328 C-78.56432617 347.71645996 -77.54564453 348.10430664 -76.49609375 348.50390625 C-75.60075928 348.84236572 -74.7054248 349.1808252 -73.78295898 349.52954102 C-71.5 350.5 -71.5 350.5 -68.5 352.5 C-66.41781654 361.16873662 -67.77887851 370.49368623 -68.67163086 379.24536133 C-68.81033871 380.68394218 -68.94809266 382.12261527 -69.0849762 383.56137085 C-69.4558021 387.43179993 -69.83955689 391.30084753 -70.22561336 395.16978288 C-70.62876787 399.23493871 -71.01915094 403.30132024 -71.41078186 407.36759949 C-72.15337189 415.05911247 -72.90622436 422.74958126 -73.66333729 430.43967694 C-75.01958815 444.21903595 -76.35768011 458.00016627 -77.69286829 471.78158015 C-78.16127136 476.61212758 -78.63397997 481.44222874 -79.11037624 486.27199423 C-79.40624171 489.27672384 -79.69944899 492.28170908 -79.99208641 495.28675461 C-80.12794976 496.67557968 -80.26497931 498.06429126 -80.40328598 499.45287514 C-80.59255235 501.35437028 -80.7772637 503.25631715 -80.96177673 505.15827942 C-81.06631637 506.22026959 -81.170856 507.28225977 -81.2785635 508.37643147 C-81.51845451 511.76031811 -81.53675624 515.10874592 -81.5 518.5 C-76.26538751 514.37913485 -72.23332691 509.89333666 -68.0859375 504.69140625 C-65.15891701 501.03897367 -62.07992194 497.52353392 -59 494 C-55.26540616 489.71834442 -51.57538939 485.41665749 -48 481 C-43.92372051 475.9681092 -39.69716102 471.08021699 -35.44628906 466.19628906 C-28.53315945 458.25002391 -21.70775634 450.23485295 -15.0625 442.0625 C-11.10427044 437.19791376 -7.03350939 432.43937822 -2.93945312 427.68945312 C0.07231987 424.18783649 3.03051691 420.65222407 5.9375 417.0625 C9.68619052 412.44554661 13.54262352 407.93101263 17.4375 403.4375 C18.29009399 402.45342163 18.29009399 402.45342163 19.15991211 401.44946289 C25.17818089 394.53004352 25.17818089 394.53004352 28.61206055 394.20947266 C33.04359292 394.54062013 36.56498697 395.62890572 40.70703125 397.1484375 C42.39251446 397.74004226 44.07841012 398.33047283 45.76464844 398.91992188 C46.66372925 399.23759521 47.56281006 399.55526855 48.48913574 399.88256836 C75.95934447 409.5385326 104.00630602 416.99722741 132.13298035 424.44790649 C138.4065742 426.11460092 144.66424395 427.81888357 150.90039062 429.62109375 C152.05641785 429.95379272 153.21244507 430.2864917 154.40350342 430.62927246 C156.56363833 431.25475488 158.72141567 431.88846055 160.87628174 432.53186035 C161.82686462 432.80687378 162.77744751 433.08188721 163.75683594 433.36523438 C164.58117126 433.60963257 165.40550659 433.85403076 166.25482178 434.10583496 C168.68428366 434.53235297 170.18136534 434.27705953 172.5 433.5 C172.23896484 433.00822266 171.97792969 432.51644531 171.70898438 432.00976562 C167.26636421 423.63025264 162.8319251 415.25084388 158.625 406.75 C151.60056677 392.58946305 144.23829722 378.60214727 136.625 364.75 C131.46674985 355.36416451 126.49390473 345.88952787 121.60375977 336.36132812 C118.92068965 331.13745197 116.2144151 325.93870816 113.35546875 320.80859375 C112.88061035 319.94645264 112.40575195 319.08431152 111.91650391 318.19604492 C111.04476779 316.6212299 110.15875437 315.05419109 109.25537109 313.49731445 C107.33975731 310.01147909 106.5077803 307.92471281 106.43359375 303.875 C107.70026354 299.8661989 109.69468366 297.27273539 112.5 294.25 C113.50875892 293.11412105 114.51655761 291.97738867 115.5234375 290.83984375 C116.02713867 290.27894043 116.53083984 289.71803711 117.04980469 289.14013672 C119.15381704 286.76054833 121.13672716 284.28905893 123.125 281.8125 C126.69932521 277.41773359 130.43857678 273.21296517 134.25390625 269.02734375 C136.56187598 266.43037607 138.75555863 263.76595987 140.9375 261.0625 C144.03148714 257.23544273 147.2283055 253.55719127 150.5625 249.9375 C154.31847371 245.85316662 157.81654684 241.65476627 161.2421875 237.29296875 C164.6012143 233.13777123 168.12880113 229.13376447 171.64282227 225.10961914 C174.91414596 221.35474564 178.11778217 217.5602597 181.25 213.6875 C184.07487839 210.19764112 186.97717579 206.81989486 190 203.5 C194.70531961 198.32742739 199.12970261 192.95692306 203.5 187.5 C204.19996094 186.63375 204.89992188 185.7675 205.62109375 184.875 C206.26175781 184.070625 206.90242188 183.26625 207.5625 182.4375 C208.13097656 181.72464844 208.69945312 181.01179688 209.28515625 180.27734375 C210.68809786 178.58361821 210.68809786 178.58361821 210.5 176.5 C198.46214583 179.04260384 186.5956994 182.00457053 174.74295044 185.30029297 C169.92404749 186.63936263 165.10067643 187.96214687 160.27734375 189.28515625 C159.29197128 189.55562775 158.30659882 189.82609924 157.29136658 190.10476685 C145.70146923 193.27840013 134.07473984 196.30850056 122.44433594 199.32958984 C112.97469131 201.79182519 103.51806808 204.2959093 94.07421875 206.85546875 C91.99668442 207.41674444 89.91912926 207.97794304 87.84155273 208.5390625 C84.81964039 209.35541062 81.79851625 210.17420545 78.77957153 211.00146484 C76.00582987 211.76146953 73.22977039 212.5124044 70.453125 213.26171875 C69.22326118 213.60302071 69.22326118 213.60302071 67.96855164 213.95121765 C59.77312822 216.14478523 59.77312822 216.14478523 55.5 215.5 C53.65966797 213.78271484 53.65966797 213.78271484 52.1171875 211.3359375 C51.52905273 210.41780273 50.94091797 209.49966797 50.33496094 208.55371094 C49.72942383 207.54598633 49.12388672 206.53826172 48.5 205.5 C47.88157227 204.47938477 47.26314453 203.45876953 46.62597656 202.40722656 C44.95538285 199.60093333 43.30894841 196.78241051 41.67855835 193.9526062 C39.83681001 190.75772792 37.97902805 187.57220362 36.12109375 184.38671875 C35.54930138 183.40582024 35.54930138 183.40582024 34.96595764 182.40510559 C30.95186667 175.53463613 26.82997161 168.73110183 22.6875 161.9375 C22.33138641 161.353172 21.97527283 160.76884399 21.60836792 160.16680908 C19.87600599 157.32435598 18.14318337 154.48218433 16.41015625 151.64013672 C13.65101122 147.10433362 10.91586408 142.55436679 8.1875 138 C7.7136084 137.20956299 7.2397168 136.41912598 6.75146484 135.60473633 C4.30004667 131.51326105 1.85498095 127.41805976 -0.5859375 123.3203125 C-5.1734704 115.62792583 -9.7729094 107.94380964 -14.5625 100.375 C-15.60083984 98.73144531 -15.60083984 98.73144531 -16.66015625 97.0546875 C-18.41459919 94.30342643 -18.41459919 94.30342643 -21.5 92.5 Z " fill="#000000" transform="translate(314.5,7.5)"/>
</svg>
