<?xml version="1.0" encoding="UTF-8"?>
<svg version="1.1" xmlns="http://www.w3.org/2000/svg" width="640" height="640">
<path d="M0 0 C1.35815062 -0.0018733 2.71630071 -0.00417604 4.07444996 -0.00686532 C7.76899176 -0.01292578 11.46351075 -0.0128566 15.15805638 -0.01167095 C19.15756962 -0.01146547 23.15707581 -0.01699968 27.15658569 -0.02172852 C34.97880132 -0.03000421 42.8010094 -0.03278197 50.62322903 -0.03334089 C56.98811831 -0.03381757 63.35300511 -0.03587984 69.7178936 -0.03904152 C87.80116004 -0.04784006 105.88442057 -0.05246221 123.96768916 -0.05171105 C125.42734491 -0.05165111 125.42734491 -0.05165111 126.91648865 -0.05158997 C128.37794637 -0.05152864 128.37794637 -0.05152864 129.86892848 -0.05146609 C145.64585858 -0.05105995 161.42276478 -0.0606234 177.19968797 -0.07472833 C193.43621597 -0.0891285 209.67273234 -0.0959965 225.90926689 -0.09513456 C235.00995166 -0.09480382 244.11061138 -0.0974965 253.21129036 -0.10831261 C260.96182893 -0.11746572 268.71233109 -0.11955372 276.46287275 -0.11280318 C280.40866049 -0.10956193 284.35437856 -0.10939333 288.30015945 -0.11815643 C328.93330751 -0.20274581 328.93330751 -0.20274581 346.66819763 4.32121277 C347.52953308 4.53479431 348.39086853 4.74837585 349.27830505 4.96842957 C368.45126606 9.93372131 387.03615559 18.46365725 403.04319763 30.13371277 C403.58653748 30.52897156 404.12987732 30.92423035 404.68968201 31.33146667 C411.91226978 36.6413452 418.557161 42.37746378 424.91819763 48.69621277 C425.53163025 49.30416687 426.14506287 49.91212097 426.77708435 50.53849792 C431.04319763 54.8758564 431.04319763 54.8758564 431.04319763 57.13371277 C431.70319763 57.13371277 432.36319763 57.13371277 433.04319763 57.13371277 C463.41122961 91.17260575 473.04422348 135.85506049 471.04319763 180.13371277 C468.94695123 209.6509972 456.05019577 238.93767509 438.04319763 262.13371277 C437.36772888 263.01414246 436.69226013 263.89457214 435.99632263 264.80168152 C421.51871119 283.11004781 403.85721407 297.58794444 383.04319763 308.13371277 C382.41171814 308.45565613 381.78023865 308.77759949 381.12962341 309.10929871 C350.86447011 324.34715224 319.00192225 326.61197008 285.62350571 326.52588677 C281.64452752 326.51897984 277.66558549 326.52963397 273.68661499 326.53782654 C265.92817298 326.55104476 258.16981889 326.54833988 250.41137368 326.53958862 C244.09544385 326.53276445 237.77953835 326.53191558 231.46360588 326.53516006 C230.55863071 326.53561976 229.65365555 326.53607946 228.72125689 326.53655309 C226.88179425 326.53751244 225.04233162 326.53848508 223.20286899 326.53947087 C206.02426596 326.54798999 188.84571126 326.53824583 171.66711616 326.52206977 C156.98556772 326.50867206 142.30409049 326.51099697 127.62254333 326.52482605 C110.49955545 326.54094768 93.37660974 326.54716396 76.25361532 326.53798926 C74.4212786 326.53703379 72.58894188 326.53609068 70.75660515 326.53516006 C69.85548197 326.53469724 68.95435879 326.53423441 68.02592884 326.53375756 C61.73150947 326.53118715 55.43711726 326.53549616 49.1427021 326.54259872 C41.45189158 326.55108768 33.76117268 326.54858073 26.07037241 326.53275649 C22.160187 326.52497139 18.25015328 326.52161087 14.33996964 326.53170395 C-37.73696028 326.65449774 -83.34839584 316.29066565 -121.42164612 278.70011902 C-133.75002846 266.21976895 -144.1379285 252.9252024 -151.95680237 237.13371277 C-152.79984924 235.48049011 -152.79984924 235.48049011 -153.65992737 233.79386902 C-162.98414437 215.04364226 -168.91239565 193.90759356 -169.23023987 172.91886902 C-169.24281326 172.1542334 -169.25538666 171.38959778 -169.26834106 170.60179138 C-169.85313726 126.43865243 -157.58473475 87.424052 -127.95680237 54.13371277 C-126.89148492 52.84436884 -125.82840256 51.55316856 -124.76930237 50.25871277 C-121.49795345 46.48053514 -117.81333752 43.30136126 -113.95680237 40.13371277 C-113.45616272 39.72072937 -112.95552307 39.30774597 -112.43971252 38.88224792 C-79.72629835 12.05163641 -42.15549874 -0.05296706 0 0 Z M-32.95680237 61.32511902 C-35.23746953 64.56520145 -36.76184539 67.43743786 -37.83180237 71.25871277 C-39.08627627 74.46459052 -40.14718307 75.31238385 -42.76930237 77.44621277 C-48.08211273 81.79305761 -51.64027398 87.33829854 -52.95680237 94.13371277 C-53.57853997 100.49456667 -52.64421261 105.34544456 -49.95680237 111.13371277 C-49.29680237 111.46371277 -48.63680237 111.79371277 -47.95680237 112.13371277 C-46.96680237 109.49371277 -45.97680237 106.85371277 -44.95680237 104.13371277 C-40.95680237 105.13371277 -40.95680237 105.13371277 -37.64430237 106.69621277 C-31.81900057 108.96709313 -26.97740201 108.18077358 -20.95680237 107.13371277 C-13.67442784 119.99854155 -10.39141909 132.92267219 -7.49195862 147.34074402 C-7.23680481 148.60652283 -6.981651 149.87230164 -6.71876526 151.17643738 C-6.22437501 153.66296213 -5.74233765 156.15198708 -5.2749176 158.64372253 C-0.90122051 181.01135482 10.01086192 197.8979839 27.29319763 212.53996277 C29.80222925 214.82497371 30.02213728 215.82170752 30.25413513 219.25871277 C30.30827576 220.53746277 30.36241638 221.81621277 30.41819763 223.13371277 C30.82600968 230.70866259 31.77542629 237.73205576 36.04319763 244.13371277 C35.82675017 247.01967894 35.45272835 248.63515363 33.60569763 250.88371277 C29.79842725 253.92952907 25.69707844 253.43694013 21.04319763 253.13371277 C18.89457975 252.75328417 16.74879643 252.35659339 14.60569763 251.94621277 C8.42751985 250.92616234 3.68702608 251.34971294 -1.95680237 254.13371277 C-4.52889415 256.11023943 -4.52889415 256.11023943 -5.95680237 258.13371277 C-5.62680237 258.79371277 -5.29680237 259.45371277 -4.95680237 260.13371277 C-1.49180237 259.14371277 -1.49180237 259.14371277 2.04319763 258.13371277 C2.37319763 259.12371277 2.70319763 260.11371277 3.04319763 261.13371277 C3.70319763 261.13371277 4.36319763 261.13371277 5.04319763 261.13371277 C5.04319763 262.78371277 5.04319763 264.43371277 5.04319763 266.13371277 C6.36319763 265.14371277 7.68319763 264.15371277 9.04319763 263.13371277 C9.55882263 263.48433777 10.07444763 263.83496277 10.60569763 264.19621277 C14.13900637 265.55517767 16.37102539 264.99055296 20.04319763 264.13371277 C21.35068997 263.49864506 22.64231487 262.83011093 23.91819763 262.13371277 C29.42859622 259.2076484 34.56443553 258.48140695 40.60569763 260.07121277 C41.41007263 260.42183777 42.21444763 260.77246277 43.04319763 261.13371277 C40.73319763 262.12371277 38.42319763 263.11371277 36.04319763 264.13371277 C38.08997788 265.35167559 38.08997788 265.35167559 40.85569763 265.07121277 C44.04319763 265.13371277 44.04319763 265.13371277 46.35569763 266.38371277 C50.21011083 267.45936296 52.27129215 265.89178384 55.75022888 264.16105652 C58.87893078 262.75927015 61.64464141 262.4229516 65.04319763 262.13371277 C64.28007263 262.87621277 63.51694763 263.61871277 62.73069763 264.38371277 C58.62097939 268.15247908 58.62097939 268.15247908 57.04319763 273.13371277 C64.01499714 272.65157954 68.09344719 270.71144506 73.84202576 266.92863464 C78.09900897 264.28058997 81.06802064 263.6570491 86.04319763 264.13371277 C87.07444763 264.48433777 88.10569763 264.83496277 89.16819763 265.19621277 C93.99790332 266.7711168 97.524374 265.07035147 102.04319763 263.13371277 C99.63328424 260.05369591 98.44086259 259.19837731 94.51194763 258.55949402 C93.20226013 258.52211121 91.89257263 258.48472839 90.54319763 258.44621277 C82.32372402 258.16306161 82.32372402 258.16306161 79.04319763 257.13371277 C78.71345455 253.01192426 78.55363753 250.82857227 80.98069763 247.38371277 C83.32675888 243.68688899 83.8970891 240.51687948 84.29319763 236.25871277 C84.37054138 235.57035339 84.44788513 234.88199402 84.52757263 234.17277527 C84.71403165 232.49464412 84.88069492 230.81433289 85.04319763 229.13371277 C89.0632491 230.71185459 93.05398604 232.35432401 97.04319763 234.00871277 C98.16854919 234.44957214 99.29390076 234.89043152 100.45335388 235.34465027 C107.57685869 238.34402071 111.86685098 241.36681448 116.26194763 247.7709198 C119.31130177 251.81582789 121.8605647 253.90106367 126.85569763 254.88371277 C127.90757263 254.96621277 128.95944763 255.04871277 130.04319763 255.13371277 C130.04319763 254.47371277 130.04319763 253.81371277 130.04319763 253.13371277 C130.95069763 253.29871277 131.85819763 253.46371277 132.79319763 253.63371277 C136.15407266 254.23508422 136.15407266 254.23508422 140.04319763 254.13371277 C141.03319763 254.46371277 142.02319763 254.79371277 143.04319763 255.13371277 C144.77115115 255.20174243 146.50155128 255.21866921 148.23069763 255.19621277 C149.13175232 255.18718933 150.03280701 255.17816589 150.96116638 255.16886902 C151.64823669 255.15726746 152.33530701 255.14566589 153.04319763 255.13371277 C152.48655516 251.62836963 151.48297654 250.36088942 148.66819763 248.25871277 C146.19846319 246.26201214 145.09184434 245.23321739 143.66819763 242.32121277 C141.98311332 239.01585508 140.35329965 237.39657962 137.66819763 234.88371277 C131.54766106 228.94144425 128.88638264 222.46410985 125.98069763 214.57121277 C116.9169089 190.58049698 104.70245697 168.44609037 87.30833435 149.56388855 C86.04319763 148.13371277 86.04319763 148.13371277 84.29710388 145.72355652 C83.88331482 145.19890808 83.46952576 144.67425964 83.04319763 144.13371277 C82.38319763 144.13371277 81.72319763 144.13371277 81.04319763 144.13371277 C80.64266426 143.24373093 80.64266426 143.24373093 80.23403931 142.33576965 C79.02224391 140.09496598 77.8059137 138.67185926 75.98973083 136.90080261 C75.37181168 136.29271759 74.75389252 135.68463257 74.11724854 135.05812073 C73.11573006 134.08620285 73.11573006 134.08620285 72.09397888 133.09465027 C70.67392802 131.69504155 69.25401049 130.29529753 67.83421326 128.89543152 C65.603197 126.70766243 63.3697656 124.5224392 61.13328552 122.34025574 C49.97787525 111.43643399 41.34537103 101.47672385 34.66819763 87.25871277 C27.05631623 71.63170616 18.98234299 60.16132836 2.04319763 54.13371277 C-10.04289868 51.08645169 -24.08576192 51.60509228 -32.95680237 61.32511902 Z M284.43772888 79.10246277 C283.66777336 79.8204303 283.66777336 79.8204303 282.88226318 80.55290222 C281.26115705 82.07154668 279.65035943 83.60032532 278.04319763 85.13371277 C277.52771362 85.62540955 277.01222961 86.11710632 276.48112488 86.623703 C273.3819474 89.59198461 270.31483962 92.59071537 267.26853943 95.61320496 C266.23877519 96.63136207 265.20453741 97.64501342 264.16600037 98.65422058 C256.84652505 105.76894733 249.67051134 113.12462086 246.01878357 122.86662292 C245.04319763 125.13371277 245.04319763 125.13371277 242.53929138 126.46965027 C241.52995544 126.81254089 240.52061951 127.15543152 239.48069763 127.50871277 C227.71308501 131.5179644 219.17109769 141.57423544 210.55906677 150.13737488 C208.49549013 152.18155928 206.41151705 154.20333283 204.32640076 156.22550964 C190.93309069 169.40569921 181.92949444 182.67626893 181.66819763 202.13371277 C181.83974842 217.58240867 187.17163388 229.72999547 197.75022888 240.91105652 C209.36813607 252.17270761 223.71466954 257.51212445 239.82054138 257.35246277 C255.86743352 256.26321918 269.33295718 248.33111136 280.45726013 237.15324402 C281.11600128 236.49974472 281.77474243 235.84624542 282.45344543 235.17294312 C283.83347214 233.79928942 285.20971214 232.42182161 286.58226013 231.04069519 C288.6581353 228.95631632 290.7519811 226.89128705 292.84788513 224.82707214 C305.5058302 212.81967309 305.5058302 212.81967309 312.04319763 197.13371277 C312.57686951 196.98675964 313.11054138 196.83980652 313.66038513 196.68840027 C322.47797294 194.03397072 330.34986874 189.47476119 337.04319763 183.13371277 C337.04319763 182.47371277 337.04319763 181.81371277 337.04319763 181.13371277 C337.83983826 180.82433777 337.83983826 180.82433777 338.65257263 180.50871277 C342.05093199 178.55410085 344.55375691 175.9124756 347.29319763 173.13371277 C347.84749451 172.58715027 348.40179138 172.04058777 348.97288513 171.47746277 C352.03535538 168.80770509 352.03535538 168.80770509 353.04319763 165.13371277 C354.36319763 164.47371277 355.68319763 163.81371277 357.04319763 163.13371277 C357.04319763 162.47371277 357.04319763 161.81371277 357.04319763 161.13371277 C358.03319763 160.80371277 359.02319763 160.47371277 360.04319763 160.13371277 C370.13015402 148.83783277 376.45150275 135.74991447 376.41819763 120.44621277 C376.41578064 119.27372986 376.41578064 119.27372986 376.41331482 118.07756042 C376.26448769 110.94990801 374.72415452 104.74673976 372.04319763 98.13371277 C371.78925232 97.42343933 371.53530701 96.71316589 371.27366638 95.98136902 C366.56554485 84.64013046 354.55380142 74.3192734 343.51585388 69.63761902 C322.89715005 62.00026073 301.0463126 63.5795105 284.43772888 79.10246277 Z " fill="#000000" transform="translate(168.95680236816406,156.8662872314453)"/>
<path d="M0 0 C7.17641867 5.872837 12.09369585 13.39945036 13.046875 22.75390625 C13.16874876 33.52754665 11.00710944 42.29657448 3.7109375 50.45703125 C1.99073711 52.06255161 0.22297647 53.57217646 -1.59765625 55.0625 C-5.14615089 57.98816417 -8.17637851 61.30136563 -11.1015625 64.83203125 C-14.42882387 68.75406214 -18.06752144 72.4956517 -22.2890625 75.45703125 C-23.2790625 75.45703125 -24.2690625 75.45703125 -25.2890625 75.45703125 C-25.51980469 74.62300781 -25.75054687 73.78898437 -25.98828125 72.9296875 C-30.24580705 58.23869927 -37.68655599 45.44382406 -51.2890625 37.45703125 C-54.56803968 35.95161848 -57.88260193 34.64370809 -61.2890625 33.45703125 C-62.10548504 34.72534818 -62.91705355 35.99679056 -63.7265625 37.26953125 C-64.17902344 37.97722656 -64.63148438 38.68492187 -65.09765625 39.4140625 C-67.13937894 42.91511484 -67.40310617 45.6756686 -67.3515625 49.64453125 C-67.34253906 50.54558594 -67.33351563 51.44664062 -67.32421875 52.375 C-67.31261719 53.06207031 -67.30101562 53.74914062 -67.2890625 54.45703125 C-66.4640625 54.80765625 -65.6390625 55.15828125 -64.7890625 55.51953125 C-55.38637257 60.32090483 -50.56632487 67.62524415 -47.2890625 77.45703125 C-46.33530688 90.69956124 -48.79482076 98.47517022 -57.2890625 108.45703125 C-60.71876541 112.23637369 -64.29198978 115.87316351 -67.89404297 119.48754883 C-69.5348139 121.14025175 -71.15592987 122.8107525 -72.77734375 124.48242188 C-81.42050479 133.25865787 -90.1948799 140.50738074 -103.0390625 140.70703125 C-112.28120835 140.59500524 -119.1558653 137.29568526 -126.2890625 131.45703125 C-132.65051918 124.90196502 -135.36399843 117.63443745 -135.7265625 108.58203125 C-135.16944819 91.69718225 -123.05842828 82.03930874 -111.89331055 70.87597656 C-110.32376752 69.30419666 -108.76246257 67.72450405 -107.20117188 66.14453125 C-106.20100787 65.14144124 -105.20037508 64.13881836 -104.19921875 63.13671875 C-103.30340088 62.23679199 -102.40758301 61.33686523 -101.48461914 60.40966797 C-99.2890625 58.45703125 -99.2890625 58.45703125 -97.2890625 58.45703125 C-97.00933594 59.48441406 -96.72960937 60.51179688 -96.44140625 61.5703125 C-92.02457941 77.10438648 -85.19883823 88.62772921 -71.1015625 96.95703125 C-70.49497803 97.32014404 -69.88839355 97.68325684 -69.26342773 98.05737305 C-65.8355693 99.98438624 -65.8355693 99.98438624 -61.99609375 100.3046875 C-58.66175171 98.64896159 -56.83916015 95.98679718 -55.59375 92.5234375 C-54.60367784 88.83507008 -53.72433018 85.27049251 -54.2890625 81.45703125 C-56.4750726 79.63016894 -56.4750726 79.63016894 -59.3515625 78.20703125 C-66.71413681 73.81980872 -71.44164658 68.70744073 -74.2265625 60.51953125 C-76.55761801 51.07875641 -75.58799098 43.18346958 -71.2890625 34.45703125 C-66.26034608 27.18053274 -60.03137766 20.85474829 -53.78051758 14.6328125 C-52.34754308 13.20302076 -50.92850839 11.76030489 -49.50976562 10.31640625 C-35.62282437 -3.58018541 -18.38961202 -12.39572824 0 0 Z " fill="#000000" transform="translate(509.2890625,250.54296875)"/>
<path d="M0 0 C2.52580244 3.11615271 4.18203975 6.30907437 5.875 9.9375 C8.13832052 14.5711139 10.18560106 17.60942316 14 21 C15.5 23 15.5 23 16 25 C14.99678604 27.93798375 13.91657095 29.48442884 11.1875 31.01953125 C7.26487067 32.64653091 4.10154473 33.68887136 0 32 C-0.66 31.01 -1.32 30.02 -2 29 C-4.32209582 28.78849981 -6.4867982 29.00389837 -8.80859375 29.1875 C-11 29 -11 29 -12.78515625 27.75 C-14 26 -14 26 -14 22 C-12.39125 21.5359375 -12.39125 21.5359375 -10.75 21.0625 C-7.40979251 19.6251986 -6.19780477 18.16551191 -4.6875 14.875 C-3.16856984 10.91539575 -2.16832445 6.9154662 -1.39453125 2.75 C-1 1 -1 1 0 0 Z " fill="#000000" transform="translate(224,383)"/>
</svg>
