<?xml version="1.0" encoding="UTF-8"?>
<svg version="1.1" xmlns="http://www.w3.org/2000/svg" width="640" height="640">
<path d="M0 0 C4.5072934 1.50243113 7.72228391 2.81355899 11.7265625 5.1328125 C13.37591797 6.08220703 13.37591797 6.08220703 15.05859375 7.05078125 C16.24742099 7.74214424 17.43622235 8.43355173 18.625 9.125 C19.87336563 9.84562802 21.12206998 10.56566954 22.37109375 11.28515625 C24.96388176 12.77930947 27.55519882 14.27596755 30.14550781 15.77441406 C36.08347309 19.20661978 42.04280788 22.60130771 48 26 C50.33355955 27.33293758 52.66677908 28.66646979 55 30 C56.16666041 30.66667762 57.33332707 31.33334429 58.5 32 C149.5 84 149.5 84 151.24996948 84.99998474 C152.41673537 85.66670665 153.58350376 86.33342418 154.75027466 87.00013733 C157.66544378 88.66592284 160.58056947 90.33178427 163.49560547 91.99780273 C168.76343195 95.00840313 174.03157559 98.01844147 179.30133057 101.02566528 C192.28305935 108.43384605 205.25086608 115.86514527 218.19165039 123.34472656 C225.69789809 127.68032519 233.22083989 131.98577942 240.75106812 136.2795105 C249.25218744 141.12736986 257.74800759 145.98286707 266.1875 150.9375 C266.88238525 151.34460205 267.57727051 151.7517041 268.29321289 152.17114258 C272.87409665 154.87409665 272.87409665 154.87409665 274 156 C274.09646028 157.83494486 274.12187344 159.67364587 274.12025452 161.51112366 C274.12231651 163.30540047 274.12231651 163.30540047 274.12442017 165.13592529 C274.12088057 166.47351099 274.11724575 167.81109644 274.11352539 169.14868164 C274.11324352 170.54782611 274.11340125 171.94697073 274.1139679 173.34611511 C274.11425588 177.15586459 274.10835898 180.96558286 274.10139394 184.77532506 C274.09516059 188.75251309 274.09455662 192.72970176 274.09336853 196.70689392 C274.09025516 204.24338539 274.08204169 211.77986243 274.07201904 219.31634754 C274.06085808 227.89419828 274.0553475 236.4720497 274.05032361 245.0499059 C274.03985908 262.69994546 274.02225953 280.34997157 274 298 C270.6220259 296.67380825 267.48221021 295.24435047 264.32421875 293.453125 C263.42662842 292.94539551 262.52903809 292.43766602 261.60424805 291.91455078 C260.64172119 291.36524902 259.67919434 290.81594727 258.6875 290.25 C257.67276611 289.67362793 256.65803223 289.09725586 255.61254883 288.50341797 C246.4219122 283.26959599 237.28811786 277.93975958 228.16015625 272.59765625 C218.56057762 266.98321325 208.91864049 261.4419968 199.28222656 255.89111328 C193.85340058 252.76319852 188.42680719 249.63141552 183 246.5 C180.83334417 245.24998121 178.6666775 243.99998122 176.5 242.75 C163.49999999 235.25 163.49999999 235.25 160.24536133 233.37231445 C158.09416776 232.13124746 155.94296345 230.89019907 153.79174805 229.64916992 C148.74037001 226.73501656 143.6890969 223.82068182 138.63821411 220.90567017 C136.84933082 219.87326522 135.06041283 218.84092044 133.27148438 217.80859375 C131.02662364 216.51314052 128.7818281 215.2175743 126.53710938 213.921875 C125.0124707 213.04208984 125.0124707 213.04208984 123.45703125 212.14453125 C122.1263562 211.37653198 122.1263562 211.37653198 120.76879883 210.59301758 C117.51647652 208.72180666 114.25782491 206.86161423 111 205 C111 227.77 111 250.54 111 274 C123.375 280.93 123.375 280.93 136 288 C147.875 294.9375 147.875 294.9375 153.76171875 298.390625 C163.85488076 304.26786201 174.10085818 309.87727196 184.3347168 315.50463867 C185.65403198 316.24484253 185.65403198 316.24484253 187 317 C188.30135533 317.63078823 188.30135533 317.63078823 189.62900066 318.27431965 C192 320 192 320 192.61523914 322.32131481 C192.61063018 323.24034242 192.60602121 324.15937002 192.60127258 325.10624695 C192.6081459 326.1621402 192.61501923 327.21803345 192.62210083 328.30592346 C192.60412445 329.46397995 192.58614807 330.62203644 192.56762695 331.81518555 C192.56872215 333.64463715 192.56872215 333.64463715 192.56983948 335.51104736 C192.56695037 338.85640791 192.5418596 342.2002302 192.50696969 345.54531837 C192.47573594 349.04064903 192.47277785 352.53599968 192.46684265 356.03144836 C192.45129527 362.65079076 192.41025527 369.26972079 192.3600952 375.8888815 C192.3042291 383.42442049 192.27672221 390.95997906 192.25161803 398.49567354 C192.19933974 413.9973546 192.11138073 429.49862415 192 445 C190.27610308 444.0615335 188.552434 443.12264846 186.82885742 442.18359375 C185.86896408 441.66079834 184.90907074 441.13800293 183.92008972 440.59936523 C179.36313563 438.10347139 174.83526138 435.55721187 170.3125 433 C169.32628662 432.4423999 168.34007324 431.8847998 167.32397461 431.31030273 C157.49913856 425.73991959 147.74463462 420.05154951 138.00091553 414.34083557 C132.52989186 411.13766031 127.05233733 407.94566336 121.57592773 404.75170898 C120.46185295 404.10189812 119.34777817 403.45208725 118.19994354 402.78258514 C115.46665807 401.1883403 112.73334272 399.5941467 110 398 C110.01797496 399.37271561 110.01797496 399.37271561 110.03631306 400.77316284 C110.32351027 423.04893038 110.53858008 445.32437855 110.67355824 467.60160828 C110.74056993 478.37489336 110.83191132 489.14694214 110.98071289 499.91943359 C111.11036057 509.3097618 111.19417265 518.69919474 111.22315043 528.09039307 C111.24008899 533.06275272 111.27983148 538.03255147 111.37449074 543.00408936 C111.4629254 547.6867701 111.48991877 552.36584367 111.47039986 557.04928017 C111.47396851 558.76510569 111.4997323 560.4810551 111.54967117 562.19615746 C111.69405878 567.41207146 111.63597099 572.01147702 110 577 C106.06091497 580.85474597 102.05237399 582.77999886 97 585 C94.94884655 586.16686974 92.90876657 587.35370326 90.88671875 588.5703125 C88.82131788 589.75695996 86.75488119 590.94180605 84.6875 592.125 C82.39945164 593.43960695 80.11164486 594.75462414 77.82421875 596.0703125 C76.68259277 596.72676758 75.5409668 597.38322266 74.36474609 598.05957031 C69.23154194 601.01985958 64.11526954 604.0088606 59 607 C49.4899712 612.55775789 39.95895743 618.07823324 30.41210938 623.57250977 C25.33398755 626.49551682 20.26143934 629.42676537 15.20703125 632.390625 C14.32249268 632.90794189 13.4379541 633.42525879 12.52661133 633.95825195 C10.88502193 634.91934869 9.24541511 635.8838427 7.6081543 636.85229492 C2.22307717 640 2.22307717 640 0 640 C0 428.8 0 217.6 0 0 Z " fill="#000000" transform="translate(332,0)"/>
<path d="M0 0 C0 211.2 0 422.4 0 640 C-4.28456404 638.57181199 -7.1910008 637.48701477 -10.921875 635.26953125 C-11.85104736 634.72184082 -12.78021973 634.17415039 -13.73754883 633.60986328 C-14.73165771 633.0167334 -15.7257666 632.42360352 -16.75 631.8125 C-18.91494352 630.53444273 -21.08032291 629.25712356 -23.24609375 627.98046875 C-24.92034424 626.99119385 -24.92034424 626.99119385 -26.62841797 625.98193359 C-32.00069384 622.82392233 -37.4079073 619.72725594 -42.8125 616.625 C-52.87130521 610.83870167 -62.86519676 604.94922985 -72.83666992 599.01391602 C-82.18803423 593.45691233 -91.60014494 588.01068749 -101.04101562 582.60742188 C-102.07162109 582.01638672 -103.10222656 581.42535156 -104.1640625 580.81640625 C-105.07623535 580.29506104 -105.9884082 579.77371582 -106.92822266 579.23657227 C-109 578 -109 578 -110 577 C-110.1028155 575.02456381 -110.13401084 573.04539482 -110.1386652 571.06729031 C-110.14413964 569.7694761 -110.14961409 568.4716619 -110.15525442 567.13451999 C-110.15633084 565.67540902 -110.15731549 564.21629798 -110.15821838 562.75718689 C-110.1627799 561.22189677 -110.16777931 559.6866079 -110.17318195 558.15132052 C-110.18681921 553.91219714 -110.19419749 549.67308183 -110.20060861 545.4339422 C-110.20858813 540.87017196 -110.22229427 536.30641864 -110.23532104 531.74266052 C-110.25711867 523.82890792 -110.27525108 515.91515364 -110.29092598 508.00138664 C-110.31359477 496.55926971 -110.34174168 485.11717147 -110.37124526 473.67507035 C-110.41895794 455.1130597 -110.46221212 436.55104142 -110.50268555 417.98901367 C-110.5420218 399.95287482 -110.58344351 381.91674275 -110.62768555 363.88061523 C-110.63040982 362.7697156 -110.63313409 361.65881597 -110.63594092 360.51425271 C-110.64962009 354.94144876 -110.66334042 349.3686449 -110.67708123 343.7958411 C-110.79110373 297.53057487 -110.89790027 251.26529397 -111 205 C-114.69799237 207.08756872 -118.3955433 209.17591811 -122.09301758 211.2644043 C-123.13544868 211.85285881 -124.17787979 212.44131332 -125.25189972 213.04759979 C-132.09705674 216.91467067 -138.91322967 220.82245995 -145.6875 224.8125 C-154.4250672 229.93412123 -163.2000832 234.9866202 -172 240 C-180.6941016 244.95363499 -189.36502888 249.94369338 -198 255 C-206.63497744 260.05631032 -215.30612953 265.04595257 -224 270 C-233.06588976 275.16699848 -242.11181502 280.36636636 -251.125 285.625 C-252.07761719 286.18058594 -253.03023437 286.73617188 -254.01171875 287.30859375 C-259.38082396 290.44757275 -264.71096809 293.63836431 -269.99951172 296.91162109 C-272 298 -272 298 -274 298 C-274.21029543 279.58933334 -274.36897444 261.17897856 -274.46630955 242.76737022 C-274.51270668 234.21836562 -274.57595324 225.67010748 -274.67895508 217.12158203 C-274.76869548 209.67011983 -274.82673164 202.21919818 -274.84679645 194.7672106 C-274.85852516 190.82152676 -274.8860577 186.87738922 -274.95157051 182.93220139 C-275.01276677 179.21677692 -275.03148604 175.50353164 -275.01796913 171.78765106 C-275.02161747 169.77749289 -275.07000185 167.76757114 -275.11978149 165.75802612 C-275.03093306 157.11835631 -275.03093306 157.11835631 -272.06735039 153.90346146 C-269.76761541 152.341795 -267.5279503 151.14706654 -265 150 C-263.67003508 149.24967866 -262.34472118 148.4909582 -261.02734375 147.71875 C-259.66573812 146.9760863 -258.30237642 146.23663534 -256.9375 145.5 C-249.69806638 141.53658826 -242.55362839 137.43044332 -235.4375 133.25 C-227.17725588 128.40290009 -218.86892961 123.65687805 -210.5 119 C-202.27797601 114.42433156 -194.114186 109.7642927 -186 105 C-176.85086711 99.62803207 -167.62596869 94.40923475 -158.35546875 89.25 C-151.18646305 85.25035548 -144.07907237 81.15651956 -137 77 C-127.85086711 71.62803207 -118.62596869 66.40923475 -109.35546875 61.25 C-102.18646305 57.25035548 -95.07907237 53.15651956 -88 49 C-78.85086711 43.62803207 -69.62596869 38.40923475 -60.35546875 33.25 C-53.18645101 29.25034876 -46.07935345 25.15605569 -39 21 C-30.41649475 15.96710708 -21.79454247 11.00784576 -13.125 6.125 C-11.50078125 5.20460938 -11.50078125 5.20460938 -9.84375 4.265625 C-8.84601563 3.70617187 -7.84828125 3.14671875 -6.8203125 2.5703125 C-5.93617676 2.07289551 -5.05204102 1.57547852 -4.14111328 1.06298828 C-2 0 -2 0 0 0 Z " fill="#000000" transform="translate(308,0)"/>
</svg>
