<svg xmlns="http://www.w3.org/2000/svg" version="1.1" width="288px" height="288px" style="shape-rendering:geometricPrecision; text-rendering:geometricPrecision; image-rendering:optimizeQuality; fill-rule:evenodd; clip-rule:evenodd" xmlns:xlink="http://www.w3.org/1999/xlink" transform="rotate(0) scale(1, 1)">
<g><path style="opacity:0.965" fill="#000000" d="M 150.5,95.5 C 163.482,94.4978 176.149,95.9978 188.5,100C 189.097,101.062 189.43,102.228 189.5,103.5C 188.653,107.887 187.653,112.22 186.5,116.5C 174.943,114.111 163.276,113.277 151.5,114C 142.731,118.77 136.898,125.936 134,135.5C 130.92,145.975 129.586,156.642 130,167.5C 130.929,172.219 133.763,175.052 138.5,176C 142.167,176.667 145.833,176.667 149.5,176C 150.667,175.5 151.5,174.667 152,173.5C 153.324,168.536 154.491,163.536 155.5,158.5C 155.182,157.353 154.516,156.519 153.5,156C 151.527,155.505 149.527,155.338 147.5,155.5C 148.518,149.904 149.852,144.404 151.5,139C 161.161,138.5 170.828,138.334 180.5,138.5C 177.207,156.504 173.207,174.337 168.5,192C 154.526,194.49 140.526,194.823 126.5,193C 113.328,187.006 107.328,176.673 108.5,162C 108.457,143.995 113.29,127.495 123,112.5C 130.297,103.611 139.463,97.9447 150.5,95.5 Z"/></g>
<g><path style="opacity:0.962" fill="#000000" d="M 45.5,97.5 C 52.6769,96.1806 60.0102,96.1806 67.5,97.5C 69.8563,107.781 72.023,118.114 74,128.5C 81.1667,118.167 88.3333,107.833 95.5,97.5C 102.811,96.3354 110.144,96.1687 117.5,97C 106.113,113.067 94.4461,129.067 82.5,145C 87.2396,160.788 91.9063,176.621 96.5,192.5C 89.1667,193.833 81.8333,193.833 74.5,192.5C 72.1454,181.748 69.4787,171.081 66.5,160.5C 58.7104,171.246 51.0438,182.079 43.5,193C 36.8417,193.5 30.175,193.666 23.5,193.5C 23.4914,191.692 23.9914,190.025 25,188.5C 36.6539,173.857 47.8206,158.857 58.5,143.5C 54.1423,128.055 49.809,112.722 45.5,97.5 Z"/></g>
<g><path style="opacity:0.97" fill="#000000" d="M 203.5,96.5 C 218.17,96.3334 232.837,96.5001 247.5,97C 258.537,99.6984 263.87,106.698 263.5,118C 263.486,129.343 258.486,137.676 248.5,143C 252.194,145.687 254.694,149.187 256,153.5C 258.367,170.152 252.2,182.652 237.5,191C 234.529,191.794 231.529,192.461 228.5,193C 213.17,193.5 197.837,193.667 182.5,193.5C 189.34,161.141 196.34,128.807 203.5,96.5 Z M 221.5,114.5 C 227.509,114.334 233.509,114.501 239.5,115C 244.268,119.244 244.768,124.077 241,129.5C 239.833,131.333 238.333,132.833 236.5,134C 229.95,135.42 223.284,135.92 216.5,135.5C 217.789,128.386 219.455,121.386 221.5,114.5 Z M 211.5,152.5 C 218.563,152.212 225.563,152.712 232.5,154C 234.919,155.686 235.919,158.019 235.5,161C 235.337,168.012 232.003,172.679 225.5,175C 219.141,175.831 212.807,175.664 206.5,174.5C 208.483,167.234 210.15,159.901 211.5,152.5 Z"/></g>
</svg>